# xmcd
#
# Track frame offsets:
#	150
#	17757
#	35299
#	58539
#	71737
#	86338
#	109239
#	127456
#	146319
#	162630
#	180742
#	191053
#	202367
#	219428
#	236622
#
# Disc length: 3347 seconds
#
# Revision: 1
# Processed by: cddbd v1.5.2PL0 Copyright (c) Steve Scherf et al.
# Submitted via: audiograbber 1.83.01
#
DISCID=e50d110f
DTITLE=Various Artist - Funk Les plus grands standarts #2
DYEAR=2017
DGENRE=Funk
TTITLE0=Anita Ward - Ring My Bell
TTITLE1=Carol Douglas - Night Fever
TTITLE2=Gloria Gaynor - Can't Take My Eyes Off You
TTITLE3=Jesse Green - Nice and Slow
TTITLE4=The Trammps - Born To Be Alive
TTITLE5=Rose Royce - Car Wash
TTITLE6=Maxine Nightingale - On The Radio
TTITLE7=Linda Clifford - She Works Hard For The Money
TTITLE8=La Toya Jackson - He's My Brother
TTITLE9=Masha Raven - I Like Plastic
TTITLE10=Sly and The Family Stone - Seventh Son
TTITLE11=John Travolta - Sandy
TTITLE12=Rare Earth - Get Ready
TTITLE13=Gloria Gaynor - The Eye Of The Tiger
TTITLE14=George Mc Crae - Rock You Baby
EXTD=
EXTT0=
EXTT1=
EXTT2=
EXTT3=
EXTT4=
EXTT5=
EXTT6=
EXTT7=
EXTT8=
EXTT9=
EXTT10=
EXTT11=
EXTT12=
EXTT13=
EXTT14=
PLAYORDER=
